<?xml version="1.0" encoding="UTF-8" standalone="no"?>
<!-- Created with Inkscape (http://www.inkscape.org/) -->

<svg
   xmlns:dc="http://purl.org/dc/elements/1.1/"
   xmlns:cc="http://creativecommons.org/ns#"
   xmlns:rdf="http://www.w3.org/1999/02/22-rdf-syntax-ns#"
   xmlns:svg="http://www.w3.org/2000/svg"
   xmlns="http://www.w3.org/2000/svg"
   xmlns:xlink="http://www.w3.org/1999/xlink"
   xmlns:sodipodi="http://sodipodi.sourceforge.net/DTD/sodipodi-0.dtd"
   xmlns:inkscape="http://www.inkscape.org/namespaces/inkscape"
   id="svg3098"
   version="1.1"
   inkscape:version="0.48.5 r10040"
   width="452.5"
   height="225"
   xml:space="preserve"
   sodipodi:docname="inverse-power.svg"
   inkscape:export-filename="/home/oliver/octave/interval-0.1.5/doc/image/inverse-power.png"
   inkscape:export-xdpi="359.92075"
   inkscape:export-ydpi="359.92075"><title
     id="title3426">Inserse Power Function</title><metadata
     id="metadata3104"><rdf:RDF><cc:Work
         rdf:about=""><dc:format>image/svg+xml</dc:format><dc:type
           rdf:resource="http://purl.org/dc/dcmitype/StillImage" /><dc:title>Inserse Power Function</dc:title><dc:date>2012-10-11</dc:date><dc:creator><cc:Agent><dc:title>Oliver Heimlich</dc:title></cc:Agent></dc:creator><cc:license
           rdf:resource="http://www.gnu.org/licenses/fdl-1.3" /><dc:rights><cc:Agent><dc:title>Oliver Heimlich</dc:title></cc:Agent></dc:rights><dc:source>own work</dc:source><dc:description>Graphical interpretation of reverse power operations. The (twodimensional) inverse image of z is hatched and outlined in the figure, in the shown example it is z = [2, 3]. A, for given intervals y and z find every x with x^y ∩ z ≠ Ø. B, for given intervals x and z find every y with x^y ∩ z ≠ Ø. </dc:description></cc:Work></rdf:RDF></metadata><defs
     id="defs3102"><pattern
       inkscape:collect="always"
       xlink:href="#Strips1_4"
       id="pattern8774"
       patternTransform="matrix(-0.5,0.5,-1,-1,0,0)" /><pattern
       inkscape:collect="always"
       xlink:href="#Strips1_4"
       id="pattern8768"
       patternTransform="matrix(0.5,0.5,-1,1,0,0)" /><pattern
       inkscape:stockid="Stripes 1:4"
       id="Strips1_4"
       patternTransform="translate(0,0) scale(10,10)"
       height="1"
       width="5"
       patternUnits="userSpaceOnUse"
       inkscape:collect="always"><rect
         id="rect5315"
         height="2"
         width="1"
         y="-0.5"
         x="0"
         style="fill:black;stroke:none" /></pattern><marker
       inkscape:stockid="Arrow2Lstart"
       orient="auto"
       refY="0.0"
       refX="0.0"
       id="Arrow2Lstart"
       style="overflow:visible"><path
         id="path6276"
         style="fill-rule:evenodd;stroke-width:0.62500000;stroke-linejoin:round"
         d="M 8.7185878,4.0337352 L -2.2072895,0.016013256 L 8.7185884,-4.0017078 C 6.9730900,-1.6296469 6.9831476,1.6157441 8.7185878,4.0337352 z "
         transform="scale(1.1) translate(1,0)" /></marker><marker
       inkscape:stockid="Arrow2Mstart"
       orient="auto"
       refY="0.0"
       refX="0.0"
       id="Arrow2Mstart"
       style="overflow:visible"><path
         id="path6282"
         style="fill-rule:evenodd;stroke-width:0.62500000;stroke-linejoin:round"
         d="M 8.7185878,4.0337352 L -2.2072895,0.016013256 L 8.7185884,-4.0017078 C 6.9730900,-1.6296469 6.9831476,1.6157441 8.7185878,4.0337352 z "
         transform="scale(0.6) translate(0,0)" /></marker><marker
       inkscape:stockid="Arrow1Lstart"
       orient="auto"
       refY="0.0"
       refX="0.0"
       id="Arrow1Lstart"
       style="overflow:visible"><path
         id="path6258"
         d="M 0.0,0.0 L 5.0,-5.0 L -12.5,0.0 L 5.0,5.0 L 0.0,0.0 z "
         style="fill-rule:evenodd;stroke:#000000;stroke-width:1.0pt"
         transform="scale(0.8) translate(12.5,0)" /></marker><marker
       inkscape:stockid="Arrow2Mend"
       orient="auto"
       refY="0.0"
       refX="0.0"
       id="Arrow2Mend"
       style="overflow:visible;"><path
         id="path6285"
         style="fill-rule:evenodd;stroke-width:0.62500000;stroke-linejoin:round;"
         d="M 8.7185878,4.0337352 L -2.2072895,0.016013256 L 8.7185884,-4.0017078 C 6.9730900,-1.6296469 6.9831476,1.6157441 8.7185878,4.0337352 z "
         transform="scale(0.6) rotate(180) translate(0,0)" /></marker><marker
       inkscape:stockid="Arrow1Mend"
       orient="auto"
       refY="0.0"
       refX="0.0"
       id="Arrow1Mend"
       style="overflow:visible;"><path
         id="path6267"
         d="M 0.0,0.0 L 5.0,-5.0 L -12.5,0.0 L 5.0,5.0 L 0.0,0.0 z "
         style="fill-rule:evenodd;stroke:#000000;stroke-width:1.0pt;"
         transform="scale(0.4) rotate(180) translate(10,0)" /></marker><marker
       inkscape:stockid="Arrow2Lend"
       orient="auto"
       refY="0.0"
       refX="0.0"
       id="Arrow2Lend"
       style="overflow:visible;"><path
         id="path6279"
         style="fill-rule:evenodd;stroke-width:0.62500000;stroke-linejoin:round;"
         d="M 8.7185878,4.0337352 L -2.2072895,0.016013256 L 8.7185884,-4.0017078 C 6.9730900,-1.6296469 6.9831476,1.6157441 8.7185878,4.0337352 z "
         transform="scale(1.1) rotate(180) translate(1,0)" /></marker><clipPath
       clipPathUnits="userSpaceOnUse"
       id="clipPath3182"><path
         d="m 969.797,1794.28 -77.512,0 c 45.488,-267.3 114.915,-396.67 270.075,-479.5 130.76,-69.81 331.58,-97.22 469.8,-113.4 l 0,92.28 c -170.98,32.61 -419.28,81.73 -556.59,273.21 -48.1,67.08 -76.847,136.3 -105.773,227.41 z M 651.461,292.418 l 42.539,0 c -28.355,266.328 -67.68,478.773 -217.406,613.871 -31.504,28.426 -76.453,58.191 -100.211,80.66 -20.453,19.341 -19.703,24.941 -19.703,56.511 0.058,-14.78 -0.965,-39.03 2.285,-53.093 8.762,-37.929 68.219,-98.433 88.363,-124.148 C 567.641,712.613 615.883,533.816 651.461,292.418 z"
         clip-rule="evenodd"
         id="path3184" /></clipPath><clipPath
       clipPathUnits="userSpaceOnUse"
       id="clipPath3374"><path
         d="m 2953.94,1794.28 -77.51,0 c 45.49,-267.3 114.91,-396.67 270.07,-479.5 130.76,-69.81 331.58,-97.22 469.8,-113.4 l 0,92.28 c -170.98,32.61 -419.28,81.73 -556.58,273.21 -48.1,67.08 -76.85,136.3 -105.78,227.41 z m -318.33,-1501.862 42.53,0 c -28.35,266.328 -67.68,478.773 -217.4,613.871 -31.51,28.426 -76.45,58.191 -100.21,80.66 -20.46,19.341 -19.71,24.941 -19.71,56.511 0.06,-14.78 -0.96,-39.03 2.29,-53.093 8.77,-37.929 68.22,-98.433 88.36,-124.148 120.32,-153.606 168.56,-332.403 204.14,-573.801 z"
         clip-rule="evenodd"
         id="path3376" /></clipPath><clipPath
       clipPathUnits="userSpaceOnUse"
       id="clipPath3566"><path
         d="m 3246.16,1272.99 c 49.91,-16.63 103.86,-29.65 157.53,-40.09 l 0,110.31 c -53.12,16.33 -106.74,36.99 -157.49,64.29 l -0.04,0 0,-134.51 z"
         clip-rule="evenodd"
         id="path3568" /></clipPath><clipPath
       clipPathUnits="userSpaceOnUse"
       id="clipPath3596"><path
         d="m 1041.36,1407.5 220.69,0 c 84.22,-45.3 176.39,-72.35 260.96,-91.55 l 0,-0.01 -362.79,0 c -46.94,25.32 -85.98,54.99 -118.86,91.56 z"
         clip-rule="evenodd"
         id="path3598" /></clipPath><marker
       inkscape:stockid="Arrow1Mend"
       orient="auto"
       refY="0"
       refX="0"
       id="Arrow1Mend-3"
       style="overflow:visible"><path
         inkscape:connector-curvature="0"
         id="path6267-1"
         d="M 0,0 5,-5 -12.5,0 5,5 0,0 z"
         style="fill-rule:evenodd;stroke:#000000;stroke-width:1pt"
         transform="matrix(-0.4,0,0,-0.4,-4,0)" /></marker><marker
       inkscape:stockid="Arrow2Mend"
       orient="auto"
       refY="0"
       refX="0"
       id="Arrow2Mend-2"
       style="overflow:visible"><path
         inkscape:connector-curvature="0"
         id="path6285-1"
         style="fill-rule:evenodd;stroke-width:0.625;stroke-linejoin:round"
         d="M 8.7185878,4.0337352 -2.2072895,0.01601326 8.7185884,-4.0017078 c -1.7454984,2.3720609 -1.7354408,5.6174519 -6e-7,8.035443 z"
         transform="scale(-0.6,-0.6)" /></marker><marker
       inkscape:stockid="Arrow2Mend"
       orient="auto"
       refY="0"
       refX="0"
       id="Arrow2Mend-4"
       style="overflow:visible"><path
         inkscape:connector-curvature="0"
         id="path6285-4"
         style="fill-rule:evenodd;stroke-width:0.625;stroke-linejoin:round"
         d="M 8.7185878,4.0337352 -2.2072895,0.01601326 8.7185884,-4.0017078 c -1.7454984,2.3720609 -1.7354408,5.6174519 -6e-7,8.035443 z"
         transform="scale(-0.6,-0.6)" /></marker><marker
       inkscape:stockid="Arrow2Mend"
       orient="auto"
       refY="0"
       refX="0"
       id="Arrow2Mend-5"
       style="overflow:visible"><path
         inkscape:connector-curvature="0"
         id="path6285-2"
         style="fill-rule:evenodd;stroke-width:0.625;stroke-linejoin:round"
         d="M 8.7185878,4.0337352 -2.2072895,0.01601326 8.7185884,-4.0017078 c -1.7454984,2.3720609 -1.7354408,5.6174519 -6e-7,8.035443 z"
         transform="scale(-0.6,-0.6)" /></marker></defs><sodipodi:namedview
     pagecolor="#ffffff"
     bordercolor="#666666"
     borderopacity="1"
     objecttolerance="10"
     gridtolerance="10"
     guidetolerance="10"
     inkscape:pageopacity="0"
     inkscape:pageshadow="2"
     inkscape:window-width="2058"
     inkscape:window-height="1360"
     id="namedview3100"
     showgrid="false"
     inkscape:zoom="2.6786011"
     inkscape:cx="177.30163"
     inkscape:cy="113.6127"
     inkscape:window-x="2007"
     inkscape:window-y="27"
     inkscape:window-maximized="0"
     inkscape:current-layer="g3106"
     inkscape:object-nodes="true"
     inkscape:object-paths="false" /><g
     id="g3106"
     inkscape:groupmode="layer"
     inkscape:label="inverse-power"
     transform="matrix(1.25,0,0,-1.25,0,225)"
     style="display:inline"><path
       style="fill:#333535;fill-opacity:1;stroke:#000000;stroke-width:0.80000000000000004;stroke-linecap:round;stroke-linejoin:miter;stroke-opacity:1;marker-end:url(#Arrow2Mend);stroke-miterlimit:4;stroke-dasharray:none"
       d="m 67.0543,136.16431 14.173004,0"
       id="path6252"
       inkscape:connector-curvature="0" /><path
       d="m 35.667834,129.36529 2.126218,0"
       style="fill:none;stroke:#000000;stroke-width:0.40263772;stroke-linecap:round;stroke-linejoin:round;stroke-miterlimit:10;stroke-opacity:1;stroke-dasharray:none"
       id="path3112"
       inkscape:connector-curvature="0" /><path
       d="m 35.667834,104.34652 2.126218,0"
       style="fill:none;stroke:#000000;stroke-width:0.40263772;stroke-linecap:round;stroke-linejoin:round;stroke-miterlimit:10;stroke-opacity:1;stroke-dasharray:none"
       id="path3116"
       inkscape:connector-curvature="0" /><path
       d="m 35.667834,79.303491 2.126218,0"
       style="fill:none;stroke:#000000;stroke-width:0.40263772;stroke-linecap:round;stroke-linejoin:round;stroke-miterlimit:10;stroke-opacity:1;stroke-dasharray:none"
       id="path3120"
       inkscape:connector-curvature="0" /><path
       d="m 35.667834,54.28403 2.126218,0"
       style="fill:none;stroke:#000000;stroke-width:0.40263772;stroke-linecap:round;stroke-linejoin:round;stroke-miterlimit:10;stroke-opacity:1;stroke-dasharray:none"
       id="path3124"
       inkscape:connector-curvature="0" /><path
       d="m 78.179062,29.24168 0,2.125801"
       style="fill:none;stroke:#000000;stroke-width:0.31688264;stroke-linecap:round;stroke-linejoin:round;stroke-miterlimit:10;stroke-opacity:1;stroke-dasharray:none"
       id="path3128"
       inkscape:connector-curvature="0" /><path
       d="m 120.69052,29.24168 0,2.125801"
       style="fill:none;stroke:#000000;stroke-width:0.31688264;stroke-linecap:round;stroke-linejoin:round;stroke-miterlimit:10;stroke-opacity:1;stroke-dasharray:none"
       id="path3132"
       inkscape:connector-curvature="0" /><path
       d="m 35.667834,154.40861 2.126218,0"
       style="fill:none;stroke:#000000;stroke-width:0.40263772;stroke-linecap:round;stroke-linejoin:round;stroke-miterlimit:10;stroke-opacity:1;stroke-dasharray:none"
       id="path3136"
       inkscape:connector-curvature="0" /><path
       d="m 234.08152,129.36529 2.12673,0"
       style="fill:none;stroke:#000000;stroke-width:0.40263772;stroke-linecap:round;stroke-linejoin:round;stroke-miterlimit:10;stroke-opacity:1;stroke-dasharray:none"
       id="path3140"
       inkscape:connector-curvature="0" /><path
       d="m 234.08152,104.34652 2.12673,0"
       style="fill:none;stroke:#000000;stroke-width:0.40263772;stroke-linecap:round;stroke-linejoin:round;stroke-miterlimit:10;stroke-opacity:1;stroke-dasharray:none"
       id="path3144"
       inkscape:connector-curvature="0" /><path
       d="m 234.08152,79.303491 2.12673,0"
       style="fill:none;stroke:#000000;stroke-width:0.40263772;stroke-linecap:round;stroke-linejoin:round;stroke-miterlimit:10;stroke-opacity:1;stroke-dasharray:none"
       id="path3148"
       inkscape:connector-curvature="0" /><path
       d="m 234.08152,54.28403 2.12673,0"
       style="fill:none;stroke:#000000;stroke-width:0.40263772;stroke-linecap:round;stroke-linejoin:round;stroke-miterlimit:10;stroke-opacity:1;stroke-dasharray:none"
       id="path3152"
       inkscape:connector-curvature="0" /><path
       d="m 276.59341,29.241914 0,2.125817"
       style="fill:none;stroke:#000000;stroke-width:0.31688368;stroke-linecap:round;stroke-linejoin:round;stroke-miterlimit:10;stroke-opacity:1;stroke-dasharray:none"
       id="path3156"
       inkscape:connector-curvature="0" /><path
       d="m 319.10481,29.241914 0,2.125817"
       style="fill:none;stroke:#000000;stroke-width:0.31688368;stroke-linecap:round;stroke-linejoin:round;stroke-miterlimit:10;stroke-opacity:1;stroke-dasharray:none"
       id="path3160"
       inkscape:connector-curvature="0" /><path
       d="m 234.08152,154.40861 2.12673,0"
       style="fill:none;stroke:#000000;stroke-width:0.40263772;stroke-linecap:round;stroke-linejoin:round;stroke-miterlimit:10;stroke-opacity:1;stroke-dasharray:none"
       id="path3164"
       inkscape:connector-curvature="0" /><path
       inkscape:connector-curvature="0"
       id="path3166"
       style="fill:none;stroke:#141414;stroke-width:0.42519999000000003;stroke-linecap:butt;stroke-linejoin:miter;stroke-miterlimit:22.92560004999999990;stroke-opacity:1;stroke-dasharray:none;marker-start:url(#Arrow2Lstart);marker-end:url(#Arrow2Lend)"
       d="m 159.67,29.2418 -124.002,0 0,146.6402" /><path
       inkscape:connector-curvature="0"
       id="path3172"
       style="fill:none;stroke:#141414;stroke-width:0.42519999000000003;stroke-linecap:butt;stroke-linejoin:miter;stroke-miterlimit:22.92560004999999990;stroke-opacity:1;stroke-dasharray:none;marker-start:url(#Arrow2Lstart);marker-end:url(#Arrow2Lend)"
       d="m 358.084,29.2418 -124.002,0 0,146.6402" /><text
       transform="scale(1,-1)"
       id="text3652"
       x="96.3293"
       y="-0.89531302"
       style="font-size:12px;font-style:normal;font-variant:normal;font-weight:normal;font-stretch:normal;text-align:center;line-height:125%;writing-mode:lr-tb;text-anchor:middle;font-family:cmmi10;-inkscape-font-specification:cmmi10"
       sodipodi:linespacing="125%"><tspan
         sodipodi:role="line"
         id="tspan4097"
         x="96.3293"
         y="-0.89531302">x</tspan></text>
<text
       transform="scale(1,-1)"
       id="text3656"
       x="332.49631"
       y="-43.416412"
       style="font-size:12px;font-style:normal;font-variant:normal;font-weight:normal;font-stretch:normal;text-align:center;line-height:125%;writing-mode:lr-tb;text-anchor:middle;font-family:cmmi10;-inkscape-font-specification:cmmi10"
       sodipodi:linespacing="125%"><tspan
         sodipodi:role="line"
         id="tspan4291"
         x="332.49631"
         y="-43.416412">x</tspan></text>
<path
       inkscape:connector-curvature="0"
       id="path3682"
       style="fill:none;stroke:#141414;stroke-width:0.42519999;stroke-linecap:round;stroke-linejoin:miter;stroke-miterlimit:22.92560005;stroke-opacity:1;stroke-dasharray:0.4252, 2.126;stroke-dashoffset:0"
       d="m 340.368,179.428 0,-150.1862 m -15.752,150.1862 0,-150.1862" /><path
       inkscape:connector-curvature="0"
       id="path3684"
       style="fill:none;stroke:#141414;stroke-width:0.42519999;stroke-linecap:round;stroke-linejoin:miter;stroke-miterlimit:22.92560005;stroke-opacity:1;stroke-dasharray:0.4252, 2.126;stroke-dashoffset:0"
       d="m 361.631,123.29 -127.549,0 m 127.549,17.46 -127.549,0" /><path
       inkscape:connector-curvature="0"
       id="path3686"
       style="fill:none;stroke:#141414;stroke-width:0.42519999;stroke-linecap:round;stroke-linejoin:miter;stroke-miterlimit:22.92560005;stroke-opacity:1;stroke-dasharray:0.4252, 2.126;stroke-dashoffset:0"
       d="m 152.301,179.428 0,-150.1862" /><path
       inkscape:connector-curvature="0"
       id="path3688"
       style="fill:none;stroke:#141414;stroke-width:0.42519999;stroke-linecap:round;stroke-linejoin:miter;stroke-miterlimit:22.92560005;stroke-opacity:1;stroke-dasharray:0.4252, 2.126;stroke-dashoffset:0"
       d="m 104.134,179.428 0,-150.1862" /><path
       inkscape:connector-curvature="0"
       id="path3690"
       style="fill:none;stroke:#141414;stroke-width:0.42519999;stroke-linecap:round;stroke-linejoin:miter;stroke-miterlimit:22.92560005;stroke-opacity:1;stroke-dasharray:0.4252, 2.126;stroke-dashoffset:0"
       d="m 163.216,140.75 -127.548,0" /><path
       inkscape:connector-curvature="0"
       id="path3692"
       style="fill:none;stroke:#141414;stroke-width:0.42519999;stroke-linecap:round;stroke-linejoin:miter;stroke-miterlimit:22.92560005;stroke-opacity:1;stroke-dasharray:0.4252, 2.126;stroke-dashoffset:0"
       d="m 163.216,131.594 -127.548,0" /><text
       transform="scale(1,-1)"
       id="text3712"
       x="49.842201"
       y="-133.47701"
       style="font-size:12px;font-style:normal;font-variant:normal;font-weight:normal;font-stretch:normal;text-align:start;line-height:125%;writing-mode:lr-tb;text-anchor:start;font-family:cmmi10;-inkscape-font-specification:cmmi10"
       sodipodi:linespacing="125%"><tspan
         sodipodi:role="line"
         id="tspan4293"
         x="49.842201"
         y="-133.47701">y</tspan></text>
<text
       y="-171.41016"
       x="162.9671"
       id="text4038"
       transform="scale(1,-1)"
       style="font-size:12px;font-style:normal;font-variant:normal;font-weight:normal;font-stretch:normal;text-align:end;line-height:125%;writing-mode:lr-tb;text-anchor:end;font-family:cmr10;-inkscape-font-specification:cmr10"
       sodipodi:linespacing="125%"><tspan
         sodipodi:role="line"
         id="tspan4044"
         x="162.9671"
         y="-171.41016">A</tspan></text>
<text
       y="-171.41016"
       x="362.65039"
       id="text4046"
       transform="scale(1,-1)"
       style="font-size:12px;font-style:normal;font-variant:normal;font-weight:normal;font-stretch:normal;text-align:end;line-height:125%;writing-mode:lr-tb;text-anchor:end;font-family:cmr10;-inkscape-font-specification:cmr10"
       sodipodi:linespacing="125%"><tspan
         sodipodi:role="line"
         id="tspan4052"
         x="362.65039"
         y="-171.41016">B</tspan></text>
<text
       y="-0.89531302"
       x="294.74319"
       id="text4071"
       transform="scale(1,-1)"
       style="font-size:12px;font-style:normal;font-variant:normal;font-weight:normal;font-stretch:normal;text-align:center;line-height:125%;writing-mode:lr-tb;text-anchor:middle;font-family:cmmi10;-inkscape-font-specification:cmmi10"
       sodipodi:linespacing="125%"><tspan
         sodipodi:role="line"
         id="tspan4099"
         x="294.74319"
         y="-0.89531302">x</tspan></text>
<text
       y="-103.95451"
       x="198.44197"
       id="text4079"
       transform="scale(1,-1)"
       style="font-size:12px;font-style:normal;font-variant:normal;font-weight:normal;font-stretch:normal;text-align:start;line-height:125%;writing-mode:lr-tb;text-anchor:start;font-family:cmmi10;-inkscape-font-specification:cmmi10"
       sodipodi:linespacing="125%"><tspan
         sodipodi:role="line"
         id="tspan4101"
         x="198.44197"
         y="-103.95451">y</tspan></text>
<text
       sodipodi:linespacing="125%"
       style="font-size:12px;font-style:normal;font-variant:normal;font-weight:normal;font-stretch:normal;text-align:start;line-height:125%;writing-mode:lr-tb;text-anchor:start;font-family:cmmi10;-inkscape-font-specification:cmmi10"
       transform="scale(1,-1)"
       id="text4091"
       x="-0.19335938"
       y="-103.95451"><tspan
         sodipodi:role="line"
         id="tspan4095"
         x="-0.19335938"
         y="-103.95451">y</tspan></text>
<text
       style="font-size:11.40970039px;font-style:normal;font-variant:normal;font-weight:normal;font-stretch:normal;text-align:end;line-height:125%;writing-mode:lr-tb;text-anchor:end;font-family:cmr10;-inkscape-font-specification:cmr10"
       y="-83.979401"
       x="217.78206"
       id="text4103"
       transform="scale(1.0517367,-0.95080832)"
       sodipodi:linespacing="125%"><tspan
         sodipodi:role="line"
         id="tspan4119"
         x="217.78206"
         y="-83.979401">-1</tspan></text>
<text
       style="font-size:11.40970039px;font-style:normal;font-variant:normal;font-weight:normal;font-stretch:normal;text-align:end;line-height:125%;writing-mode:lr-tb;text-anchor:end;font-family:cmr10;-inkscape-font-specification:cmr10"
       y="-57.32584"
       x="216.28899"
       id="text4125"
       transform="scale(1.0517367,-0.95080832)"
       sodipodi:linespacing="125%"><tspan
         sodipodi:role="line"
         id="tspan4129"
         x="216.28899"
         y="-57.32584">-2</tspan></text>
<text
       sodipodi:linespacing="125%"
       transform="scale(1.0517367,-0.95080832)"
       id="text4135"
       x="216.23326"
       y="-110.18874"
       style="font-size:11.40970039px;font-style:normal;font-variant:normal;font-weight:normal;font-stretch:normal;text-align:end;line-height:125%;writing-mode:lr-tb;text-anchor:end;font-family:cmr10;-inkscape-font-specification:cmr10"><tspan
         sodipodi:role="line"
         id="tspan4139"
         x="216.23326"
         y="-110.18874">0</tspan></text>
<text
       style="font-size:11.40970039px;font-style:normal;font-variant:normal;font-weight:normal;font-stretch:normal;text-align:end;line-height:125%;writing-mode:lr-tb;text-anchor:end;font-family:cmr10;-inkscape-font-specification:cmr10"
       y="-136.8423"
       x="217.78206"
       id="text4141"
       transform="scale(1.0517367,-0.95080832)"
       sodipodi:linespacing="125%"><tspan
         y="-136.8423"
         x="217.78206"
         sodipodi:role="line"
         id="tspan4145">1</tspan></text>
<text
       sodipodi:linespacing="125%"
       transform="scale(1.0517367,-0.95080832)"
       id="text4157"
       x="216.28899"
       y="-163.05164"
       style="font-size:11.40970039px;font-style:normal;font-variant:normal;font-weight:normal;font-stretch:normal;text-align:end;line-height:125%;writing-mode:lr-tb;text-anchor:end;font-family:cmr10;-inkscape-font-specification:cmr10"><tspan
         y="-163.05164"
         x="216.28899"
         id="tspan4159"
         sodipodi:role="line">2</tspan></text>
<text
       sodipodi:linespacing="125%"
       transform="scale(1.0517367,-0.95080832)"
       id="text4165"
       x="115.23186"
       y="-16.457056"
       style="font-size:11.40970039px;font-style:normal;font-variant:normal;font-weight:normal;font-stretch:normal;text-align:end;line-height:125%;writing-mode:lr-tb;text-anchor:end;font-family:cmr10;-inkscape-font-specification:cmr10"><tspan
         y="-16.457056"
         x="115.23186"
         id="tspan4167"
         sodipodi:role="line">2</tspan></text>
<text
       style="font-size:11.40970039px;font-style:normal;font-variant:normal;font-weight:normal;font-stretch:normal;text-align:end;line-height:125%;writing-mode:lr-tb;text-anchor:end;font-family:cmr10;-inkscape-font-specification:cmr10"
       y="-16.457056"
       x="75.072212"
       id="text4169"
       transform="scale(1.0517367,-0.95080832)"
       sodipodi:linespacing="125%"><tspan
         sodipodi:role="line"
         id="tspan4173"
         x="75.072212"
         y="-16.457056">1</tspan></text>
<text
       sodipodi:linespacing="125%"
       transform="scale(1.0517367,-0.95080832)"
       id="text4185"
       x="34.109364"
       y="-16.457056"
       style="font-size:11.40970039px;font-style:normal;font-variant:normal;font-weight:normal;font-stretch:normal;text-align:end;line-height:125%;writing-mode:lr-tb;text-anchor:end;font-family:cmr10;-inkscape-font-specification:cmr10"><tspan
         y="-16.457056"
         x="34.109364"
         id="tspan4187"
         sodipodi:role="line">0</tspan></text>
<text
       sodipodi:linespacing="125%"
       transform="scale(1.0517367,-0.95080832)"
       id="text4225"
       x="29.834894"
       y="-83.979401"
       style="font-size:11.40970039px;font-style:normal;font-variant:normal;font-weight:normal;font-stretch:normal;text-align:end;line-height:125%;writing-mode:lr-tb;text-anchor:end;font-family:cmr10;-inkscape-font-specification:cmr10"><tspan
         y="-83.979401"
         x="29.834894"
         id="tspan4227"
         sodipodi:role="line">-1</tspan></text>
<text
       sodipodi:linespacing="125%"
       transform="scale(1.0517367,-0.95080832)"
       id="text4229"
       x="28.341822"
       y="-57.32584"
       style="font-size:11.40970039px;font-style:normal;font-variant:normal;font-weight:normal;font-stretch:normal;text-align:end;line-height:125%;writing-mode:lr-tb;text-anchor:end;font-family:cmr10;-inkscape-font-specification:cmr10"><tspan
         y="-57.32584"
         x="28.341822"
         id="tspan4231"
         sodipodi:role="line">-2</tspan></text>
<text
       style="font-size:11.40970039px;font-style:normal;font-variant:normal;font-weight:normal;font-stretch:normal;text-align:end;line-height:125%;writing-mode:lr-tb;text-anchor:end;font-family:cmr10;-inkscape-font-specification:cmr10"
       y="-110.18874"
       x="28.286097"
       id="text4233"
       transform="scale(1.0517367,-0.95080832)"
       sodipodi:linespacing="125%"><tspan
         y="-110.18874"
         x="28.286097"
         id="tspan4235"
         sodipodi:role="line">0</tspan></text>
<text
       sodipodi:linespacing="125%"
       transform="scale(1.0517367,-0.95080832)"
       id="text4237"
       x="29.834894"
       y="-136.8423"
       style="font-size:11.40970039px;font-style:normal;font-variant:normal;font-weight:normal;font-stretch:normal;text-align:end;line-height:125%;writing-mode:lr-tb;text-anchor:end;font-family:cmr10;-inkscape-font-specification:cmr10"><tspan
         id="tspan4239"
         sodipodi:role="line"
         x="29.834894"
         y="-136.8423">1</tspan></text>
<text
       style="font-size:11.40970039px;font-style:normal;font-variant:normal;font-weight:normal;font-stretch:normal;text-align:end;line-height:125%;writing-mode:lr-tb;text-anchor:end;font-family:cmr10;-inkscape-font-specification:cmr10"
       y="-163.05164"
       x="28.341822"
       id="text4241"
       transform="scale(1.0517367,-0.95080832)"
       sodipodi:linespacing="125%"><tspan
         sodipodi:role="line"
         id="tspan4243"
         x="28.341822"
         y="-163.05164">2</tspan></text>
<text
       style="font-size:11.40970039px;font-style:normal;font-variant:normal;font-weight:normal;font-stretch:normal;text-align:end;line-height:125%;writing-mode:lr-tb;text-anchor:end;font-family:cmr10;-inkscape-font-specification:cmr10"
       y="-16.457056"
       x="303.98221"
       id="text4279"
       transform="scale(1.0517367,-0.95080832)"
       sodipodi:linespacing="125%"><tspan
         sodipodi:role="line"
         id="tspan4281"
         x="303.98221"
         y="-16.457056">2</tspan></text>
<text
       sodipodi:linespacing="125%"
       transform="scale(1.0517367,-0.95080832)"
       id="text4283"
       x="263.82257"
       y="-16.457056"
       style="font-size:11.40970039px;font-style:normal;font-variant:normal;font-weight:normal;font-stretch:normal;text-align:end;line-height:125%;writing-mode:lr-tb;text-anchor:end;font-family:cmr10;-inkscape-font-specification:cmr10"><tspan
         y="-16.457056"
         x="263.82257"
         id="tspan4285"
         sodipodi:role="line">1</tspan></text>
<text
       style="font-size:11.40970039px;font-style:normal;font-variant:normal;font-weight:normal;font-stretch:normal;text-align:end;line-height:125%;writing-mode:lr-tb;text-anchor:end;font-family:cmr10;-inkscape-font-specification:cmr10"
       y="-16.457056"
       x="222.85971"
       id="text4287"
       transform="scale(1.0517367,-0.95080832)"
       sodipodi:linespacing="125%"><tspan
         sodipodi:role="line"
         id="tspan4289"
         x="222.85971"
         y="-16.457056">0</tspan></text>
<path
       style="fill:#141414;fill-opacity:1;stroke:#000000;stroke-width:0.80000001px;stroke-linecap:round;stroke-linejoin:miter;stroke-opacity:1;marker-end:url(#Arrow2Mend);display:inline"
       d="m 128.22519,85.628345 0,-14.173007"
       id="path6252-0"
       inkscape:connector-curvature="0" /><path
       style="fill:#141414;fill-opacity:1;stroke:#000000;stroke-width:0.80000001px;stroke-linecap:round;stroke-linejoin:miter;stroke-opacity:1;marker-end:url(#Arrow2Mend);display:inline"
       d="m 280.148,132.02 -14.173,0"
       id="path6252-3"
       inkscape:connector-curvature="0" /><path
       style="fill:#141414;fill-opacity:1;stroke:#000000;stroke-width:0.80000001px;stroke-linecap:round;stroke-linejoin:miter;stroke-opacity:1;marker-end:url(#Arrow2Mend);display:inline"
       d="m 332.492,56.7387 0,14.173"
       id="path6252-3-1"
       inkscape:connector-curvature="0" /><path
       id="path6177-1"
       style="display:inline;fill:url(#pattern8768);fill-opacity:1;stroke:none;"
       d="m 452.02815,74.831852 c -17.2775,-2.0225 -42.38,-5.44875 -58.725,-14.175 -19.395,-10.35375 -28.07337,-26.525 -33.75937,-59.9374994 l 9.689,2.5e-6 c 3.61575,11.3887499 7.20912,20.0412499 13.22162,28.4262499 17.16375,23.935 48.20125,30.075 69.57375,34.15125 z m -117.27,113.609998 c -3.54437,-33.291 -8.47175,-59.8315 -27.1875,-76.71875 -3.938,-3.55325 -9.53025,-7.28512 -12.5,-10.09375 -2.55662,-2.41762 -2.46875,-3.11625 -2.46875,-7.0625 0.007,1.8475 -0.125,4.89838 0.28125,6.65625 1.09525,4.74113 8.51325,12.28562 11.03125,15.5 15.03913,19.20075 21.084,41.544 25.53125,71.71875 z M 204.02,74.8275 C 186.7425,72.805 161.64,69.37875 145.295,60.6525 125.9,50.29875 117.22163,34.1275 111.53563,0.715 l 9.689,2.52e-6 c 3.61575,11.38875048 7.20912,20.04125048 13.22162,28.42625048 17.16375,23.935 48.20125,30.075 69.57375,34.15125 z m -117.27,113.61 c -3.544375,-33.291 -8.47175,-59.8315 -27.1875,-76.71875 -3.938,-3.55325 -9.53025,-7.28512 -12.5,-10.09375 -2.556625,-2.417625 -2.46875,-3.11625 -2.46875,-7.0625 0.0072,1.8475 -0.125,4.898375 0.28125,6.65625 1.09525,4.74113 8.51325,12.28562 11.03125,15.5 15.039125,19.20075 21.084,41.544 25.53125,71.71875 z"
       inkscape:connector-curvature="0"
       transform="matrix(0.8,0,0,-0.8,0,180)" /><path
       id="path6177-1-0"
       style="display:inline;fill:url(#pattern8774);fill-opacity:1;stroke:none"
       d="M 130.1875,49.0625 C 134.29403,53.632187 139.13774,57.335943 145,60.5 l 45.34375,0 c -10.56043,-2.397401 -22.04679,-5.785086 -32.5625,-11.4375 l -27.59375,0 z m 275.59375,0 0,16.8125 c 6.24025,2.078587 12.97818,3.695947 19.6875,5 l 0,-13.78125 c -6.64147,-2.039543 -13.34276,-4.619092 -19.6875,-8.03125 z"
       inkscape:connector-curvature="0"
       transform="matrix(0.8,0,0,-0.8,0,180)" /><path
       style="display:inline;fill:none;stroke:#333333;stroke-width:0.88599998000000002;stroke-linecap:round;stroke-linejoin:round;stroke-miterlimit:22.92560004999999990;stroke-opacity:1;stroke-dasharray:none"
       d="m 86.75,188.4375 c -3.544375,-33.291 -8.47175,-59.8315 -27.1875,-76.71875 -3.938,-3.55325 -9.53025,-7.28512 -12.5,-10.09375 -2.556625,-2.417625 -2.46875,-3.11625 -2.46875,-7.0625 0.0072,1.8475 -0.125,4.898375 0.28125,6.65625 1.09525,4.74113 8.51325,12.28562 11.03125,15.5 15.039125,19.20075 21.084,41.544 25.53125,71.71875"
       id="path3646-2"
       inkscape:connector-curvature="0"
       sodipodi:nodetypes="csccccc"
       transform="matrix(0.8,0,0,-0.8,0,180)" /><path
       inkscape:connector-curvature="0"
       id="path3648"
       style="display:inline;fill:none;stroke:#000000;stroke-width:0.70866001000000001;stroke-linecap:round;stroke-linejoin:round;stroke-miterlimit:22.92560004999999990;stroke-opacity:1;stroke-dasharray:none"
       d="m 361.63,120.138 c -13.822,1.618 -33.904,4.359 -46.98,11.34 -15.516,8.283 -22.458,21.22 -27.007,47.95 m 7.751,0 c 2.893,-9.111 5.768,-16.033 10.578,-22.741 13.73,-19.148 38.56,-24.06 55.658,-27.321 M 267.814,29.2418 c -2.835,26.6328 -6.768,47.8773 -21.74,61.3871 -3.151,2.8426 -7.645,5.8191 -10.021,8.066 -2.046,1.9341 -1.971,2.4941 -1.971,5.6511 0.006,-1.478 -0.096,-3.903 0.229,-5.3093 0.877,-3.7929 6.822,-9.8433 8.836,-12.4148 12.032,-15.3606 16.856,-33.2403 20.414,-57.3801" /><path
       inkscape:connector-curvature="0"
       id="path3708"
       style="display:inline;fill:#ffffff;fill-opacity:1;stroke:#333333;stroke-width:0.70866001000000001;stroke-linecap:butt;stroke-linejoin:miter;stroke-miterlimit:22.92560004999999990;stroke-opacity:1;stroke-dasharray:none"
       d="m 35.668,105.764 c 0.7828,0 1.4175,-0.635 1.4175,-1.418 0,-0.782 -0.6347,-1.417 -1.4175,-1.417 -0.7825,0 -1.4172,0.635 -1.4172,1.417 0,0.783 0.6347,1.418 1.4172,1.418 z" /><path
       inkscape:connector-curvature="0"
       id="path3704"
       style="display:inline;fill:#ffffff;fill-opacity:1;stroke:#333333;stroke-width:0.70866001000000001;stroke-linecap:butt;stroke-linejoin:miter;stroke-miterlimit:22.92560004999999990;stroke-opacity:1;stroke-dasharray:none"
       d="m 234.082,105.764 c 0.783,0 1.418,-0.635 1.418,-1.418 0,-0.782 -0.635,-1.417 -1.418,-1.417 -0.782,0 -1.417,0.635 -1.417,1.417 0,0.783 0.635,1.418 1.417,1.418 z" /><path
       id="path6140"
       style="display:inline;fill:none;stroke:#333333;stroke-width:0.88582503999999995;stroke-linecap:round;stroke-linejoin:round;stroke-miterlimit:22.92560004999999990;stroke-opacity:1;stroke-dasharray:none"
       d="m 121.22463,0.71500252 c 3.61575,11.38875048 7.20912,20.04125048 13.22162,28.42625048 17.16375,23.935 48.20125,30.075 69.57375,34.15125 m 0,11.534997 C 186.7425,72.805 161.64,69.37875 145.295,60.6525 125.9,50.29875 117.22163,34.1275 111.53563,0.715"
       inkscape:connector-curvature="0"
       transform="matrix(0.8,0,0,-0.8,0,180)" /></g></svg>