<?xml version="1.0" encoding="UTF-8" standalone="no"?>
<!-- Created with Inkscape (http://www.inkscape.org/) -->

<svg
   xmlns:dc="http://purl.org/dc/elements/1.1/"
   xmlns:cc="http://creativecommons.org/ns#"
   xmlns:rdf="http://www.w3.org/1999/02/22-rdf-syntax-ns#"
   xmlns:svg="http://www.w3.org/2000/svg"
   xmlns="http://www.w3.org/2000/svg"
   xmlns:sodipodi="http://sodipodi.sourceforge.net/DTD/sodipodi-0.dtd"
   xmlns:inkscape="http://www.inkscape.org/namespaces/inkscape"
   width="171.59312"
   height="58.712929"
   id="svg2"
   version="1.1"
   inkscape:version="0.48.5 r10040"
   sodipodi:docname="logo.svg">
  <title
     id="title50561">Octave Interval Package Logo</title>
  <defs
     id="defs4">
    <inkscape:perspective
       sodipodi:type="inkscape:persp3d"
       inkscape:vp_x="723.29727 : 401.34172 : 1"
       inkscape:vp_y="-6.123234e-14 : 1000 : 0"
       inkscape:vp_z="-329.06493 : 401.34172 : 1"
       inkscape:persp3d-origin="197.11618 : 277.32592 : 1"
       id="perspective4048" />
  </defs>
  <sodipodi:namedview
     id="base"
     pagecolor="#ffffff"
     bordercolor="#666666"
     borderopacity="1.0"
     inkscape:pageopacity="0.0"
     inkscape:pageshadow="2"
     inkscape:zoom="1.4"
     inkscape:cx="48.27423"
     inkscape:cy="7.4013725"
     inkscape:document-units="pt"
     inkscape:current-layer="layer1"
     showgrid="false"
     inkscape:window-width="1680"
     inkscape:window-height="986"
     inkscape:window-x="0"
     inkscape:window-y="27"
     inkscape:window-maximized="1"
     fit-margin-top="4"
     fit-margin-left="4"
     fit-margin-right="4"
     fit-margin-bottom="4"
     units="pt" />
  <metadata
     id="metadata7">
    <rdf:RDF>
      <cc:Work
         rdf:about="">
        <dc:format>image/svg+xml</dc:format>
        <dc:type
           rdf:resource="http://purl.org/dc/dcmitype/StillImage" />
        <dc:title>Octave Interval Package Logo</dc:title>
        <dc:date>2015-07-25</dc:date>
        <dc:creator>
          <cc:Agent>
            <dc:title>Oliver Heimlich</dc:title>
          </cc:Agent>
        </dc:creator>
        <dc:rights>
          <cc:Agent>
            <dc:title>Oliver Heimlich</dc:title>
          </cc:Agent>
        </dc:rights>
        <cc:license
           rdf:resource="http://www.gnu.org/licenses/gpl-3.0.html" />
        <dc:description>Colors are taken from the solarized color scheme. Font is: EB Garamond.</dc:description>
      </cc:Work>
    </rdf:RDF>
  </metadata>
  <g
     inkscape:label="Ebene 1"
     inkscape:groupmode="layer"
     id="layer1"
     transform="translate(-464.88204,-478.8302)"
     style="display:inline">
    <g
       id="g50539"
       style="fill:#839496;fill-opacity:1">
      <path
         id="path50451"
         transform="translate(0,308.2677)"
         d="m 521.40625,175.5625 c -7.91999,0 -13.59375,4.56501 -13.59375,12.125 0,4.39317 2.00179,7.92879 5.15625,10.0625 l 0,-6.875 c -0.11775,-0.39122 -0.19324,-0.78675 -0.28125,-1.1875 -0.25422,-0.0976 -0.78493,-0.26913 -1.71875,-0.53125 l -0.0312,0 -0.0312,0 c -0.32757,-0.10919 -0.73036,-0.27877 -1.125,-0.65625 -0.39464,-0.37748 -0.71875,-1.0538 -0.71875,-1.6875 0,-0.60611 0.28082,-1.19745 0.59375,-1.53125 0.31293,-0.3338 0.64856,-0.49892 0.9375,-0.625 0.57788,-0.2522 1.09167,-0.3125 1.625,-0.3125 0.0961,0 0.18677,-0.001 0.28125,0 0.76416,-3.68686 3.62258,-6.9375 7.375,-6.9375 5.2,0 7.96875,5.67501 7.96875,10.875 0,4.76 -2.08375,9.84375 -6.84375,9.84375 -0.24642,0 -0.48677,-0.0284 -0.71875,-0.0625 l 0,1.90625 c 0.0522,0.002 0.10309,0 0.15625,0 6.84,0 11.875,-6.06625 11.875,-12.90625 0,-5.83999 -5.46625,-11.5 -10.90625,-11.5 z m -4.9375,20.875 0,2.9375 c 0.10198,0.0282 0.20929,0.0366 0.3125,0.0625 l 0,-2.78125 c -0.10133,-0.0748 -0.2145,-0.13869 -0.3125,-0.21875 z"
         style="font-size:40px;font-style:normal;font-variant:normal;font-weight:normal;font-stretch:normal;line-height:125%;letter-spacing:0px;word-spacing:0px;fill:#839496;fill-opacity:1;stroke:none;font-family:EB Garamond;-inkscape-font-specification:EB Garamond"
         inkscape:connector-curvature="0" />
      <path
         inkscape:connector-curvature="0"
         id="path50453"
         style="font-size:40px;font-style:normal;font-variant:normal;font-weight:normal;font-stretch:normal;line-height:125%;letter-spacing:0px;word-spacing:0px;fill:#839496;fill-opacity:1;stroke:none;font-family:EB Garamond;-inkscape-font-specification:EB Garamond"
         d="m 542.43521,508.06202 c 3.92,0 6.24,-1.92 6.24,-3.08 0,-0.4 -0.2,-0.56 -0.6,-0.56 -0.4,0 -2.36,0.92 -4.2,0.92 -3.4,0 -4.96,-3.76 -4.96,-7.28 0,-2.63999 1.68,-5.64 4.08,-5.64 0.84,0 1.36,0.72 2.04,1.4 0.88,0.88 1.88,1.44 2.6,1.44 0.92,0 1.68,-0.6 1.68,-1.56 0,-0.52 -0.56,-1.2 -1.32,-1.84 -0.64,-0.52 -1.88,-1.32 -4.68,-1.32 -4.6,0 -8.08,4.56001 -8.08,9.4 0,4.24 2.92,8.12 7.2,8.12" />
      <path
         inkscape:connector-curvature="0"
         id="path50455"
         style="font-size:40px;font-style:normal;font-variant:normal;font-weight:normal;font-stretch:normal;line-height:125%;letter-spacing:0px;word-spacing:0px;fill:#839496;fill-opacity:1;stroke:none;font-family:EB Garamond;-inkscape-font-specification:EB Garamond"
         d="m 557.45833,508.06202 c 2.4,0 4.56,-1.96 4.56,-2.88 0,-0.4 -0.2,-0.56 -0.6,-0.56 -0.4,0 -1.4,0.72 -2.88,0.72 -1.39999,0 -2.08,-0.88 -2.08,-3.68 l 0,-7.48 c 0,-0.56 0.16,-0.76 0.64,-0.76 l 3.96,0 c 0.56,0 0.96,-1.04 0.96,-1.44 0,-0.4 -0.16,-0.92 -0.8,-0.92 l -3.88,0 c -0.52,0 -0.88,-0.2 -0.88,-0.6 l 0,-1.12 c 0,-0.68 -0.08,-1 -0.56,-1 -0.52,0 -2.04,1.52 -2.6,2 -0.99999,0.84 -2.68,1.96 -2.68,2.52 0,0.4 0.92,0.56 1.28,0.56 1.48,0 1.24,0.2 1.24,0.56 l 0,9.52 c 0,3.4 1.96001,4.56 4.32,4.56" />
      <path
         inkscape:connector-curvature="0"
         id="path50457"
         style="font-size:40px;font-style:normal;font-variant:normal;font-weight:normal;font-stretch:normal;line-height:125%;letter-spacing:0px;word-spacing:0px;fill:#839496;fill-opacity:1;stroke:none;font-family:EB Garamond;-inkscape-font-specification:EB Garamond"
         d="m 567.42708,502.50202 c 0,-0.68 0.60001,-1.48 2,-1.92 l 1.92,-0.76 c 0.44,-0.16 0.92,-0.16 0.92,0.28 l 0,3.76 c 0,0.96 -1.36,1.52 -2.48,1.52 -1.43999,0 -2.36,-0.92 -2.36,-2.88 m 2.96,-11.96 c -1.47999,0 -3,0.92 -4.4,1.88 -0.83999,0.6 -1.52,1.8 -1.52,2.72 0,0.32 0.08,1.36 0.32,1.36 0.4,0 2,-0.68 2.24,-0.84 0.36,-0.24 0.4,-0.56 0.4,-1.56 0,-0.84 1.00001,-1.16 1.84,-1.16 1.4,0 2.92,1.04 2.92,2.44 l 0,1.96 c 0,0.4 -0.2,0.6 -0.92,0.92 l -5.24,2.2 c -1.19999,0.52 -2.16,1.76001 -2.16,3.76 0,2 2.00001,3.84 3.96,3.84 1.56,0 3.16001,-0.8 4.08,-1.72 0.28,-0.28 0.32,-0.32 0.6,0.08 0.52,0.72 1.44001,1.64 2.76,1.64 1.6,0 3.6,-1.04 3.6,-2.48 0,-0.44 -0.12,-0.88 -0.36,-0.88 -0.28,0 -0.88,0.52 -1.44,0.52 -0.67999,0 -1.44,-0.48 -1.44,-1.12 l 0,-9.48 c 0,-2.11999 -1.84,-4.08 -5.24,-4.08" />
      <path
         inkscape:connector-curvature="0"
         id="path50459"
         style="font-size:40px;font-style:normal;font-variant:normal;font-weight:normal;font-stretch:normal;line-height:125%;letter-spacing:0px;word-spacing:0px;fill:#839496;fill-opacity:1;stroke:none;font-family:EB Garamond;-inkscape-font-specification:EB Garamond"
         d="m 591.55521,492.54202 c 0.24,0.04 0.68,0.32 0.68,0.72 0,0.28 -0.08,0.84 -0.4,1.64 l -2.88,7.28 c -0.12,0.32 -0.28,0.4 -0.4,0 l -3.28,-8.6 c -0.16,-0.4 0,-0.92 0.2,-0.96 0.88,-0.28 1.36,-0.6 1.36,-1 0,-0.4 -0.36,-0.8 -1,-0.8 -0.6,0 -2.28,0.24 -2.88,0.24 -0.6,0 -1.96,-0.24 -2.56,-0.24 -0.64,0 -0.96,0.4 -0.96,0.8 0,0.4 0.72,0.72 1.32,0.92 0.6,0.2 1.16,1.48 1.56,2.52 l 4.44,11.64 c 0.24,0.68 0.6,1.6 1,1.6 0.72,0 1.84,-3.8 2.52,-5.48 l 3.16,-8 c 0.56,-1.4 1.28,-2.12 1.72,-2.28 0.6,-0.2 1.36,-0.52 1.36,-0.92 0,-0.4 -0.32,-0.8 -0.96,-0.8 -0.6,0 -1.32,0.24 -1.92,0.24 -0.6,0 -1.6,-0.24 -2.2,-0.24 -0.64,0 -1,0.4 -1,0.8 0,0.4 0.52,0.8 1.12,0.92" />
      <path
         inkscape:connector-curvature="0"
         id="path50461"
         style="font-size:40px;font-style:normal;font-variant:normal;font-weight:normal;font-stretch:normal;line-height:125%;letter-spacing:0px;word-spacing:0px;fill:#839496;fill-opacity:1;stroke:none;font-family:EB Garamond;-inkscape-font-specification:EB Garamond"
         d="m 601.07208,495.14202 c 0,-0.8 1.64001,-2.76 4.04,-2.76 1.16,0 2.36,0.8 2.36,1.96 0,0.56 -0.2,1.24 -0.6,1.24 l -5.28,0 c -0.48,0 -0.52,-0.16 -0.52,-0.44 m 9.88,-0.44 c 0,-2.03999 -2.56,-4.16 -5.28,-4.16 -4.87999,0 -8.64,3.76001 -8.64,8.68 0,4.52 2.48001,8.84 6.92,8.84 3.92,0 6.24,-1.92 6.24,-3.08 0,-0.4 -0.2,-0.56 -0.6,-0.56 -0.4,0 -2.16,0.92 -4.16,0.92 -3.15999,0 -5.04,-3.28 -5.04,-6.32 0,-0.68 0,-0.76 0.16,-1.2 0.12,-0.32 0.2,-0.4 0.76,-0.4 l 8.44,0 c 1.04,0 1.2,-1.64 1.2,-2.72" />
    </g>
    <g
       style="fill:#b58900;fill-opacity:1"
       id="g50465"
       transform="translate(212.85534,-0.14793341)">
      <path
         inkscape:connector-curvature="0"
         id="path50467"
         style="font-size:40px;font-style:normal;font-variant:normal;font-weight:normal;font-stretch:normal;line-height:125%;letter-spacing:0px;word-spacing:0px;fill:#b58900;fill-opacity:1;stroke:none;font-family:EB Garamond;-inkscape-font-specification:EB Garamond"
         d="m 267.4267,518.49106 c -1.35999,0 -3,0.2 -4.4,0.2 -1.43999,0 -2.88,-0.2 -4.44,-0.2 -0.6,0 -1.4,0.24 -1.4,0.72 0,0.36 0.28,0.56 0.64,0.68 2.28,0.64 3.28,0.68001 3.28,2.96 l 0,4.6 c 0,1.48 -0.52,2.28 -1.88,2.88 -0.87999,0.4 -2.2,0.6 -2.2,1.2 0,0.4 0.88,0.64 1.32,0.68 0.28,0 2.64001,-0.24 4.52,-0.24 1.92,0 4.56,0.24 4.84,0.24 0.44,-0.04 1.28,-0.28 1.28,-0.68 0,-0.6 -1.32,-0.8 -2.2,-1.2 -1.35999,-0.6 -1.88,-1.4 -1.88,-2.88 l 0,-4.6 c 0,-2.27999 1.04001,-2.32 3.32,-2.96 0.36,-0.12 0.6,-0.32 0.6,-0.68 0,-0.48 -0.8,-0.72 -1.4,-0.72"
         sodipodi:nodetypes="cssscsscscscscsscsc" />
      <path
         inkscape:connector-curvature="0"
         id="path50469"
         style="font-size:40px;font-style:normal;font-variant:normal;font-weight:normal;font-stretch:normal;line-height:125%;letter-spacing:0px;word-spacing:0px;fill:#b58900;fill-opacity:1;stroke:none;font-family:EB Garamond;-inkscape-font-specification:EB Garamond"
         d="m 294.6142,504.49106 c -1.35999,0 -3,0.2 -4.4,0.2 -1.43999,0 -2.88,-0.2 -4.44,-0.2 -0.6,0 -1.4,0.24 -1.4,0.72 0,0.36 0.28,0.56 0.64,0.68 2.28,0.64 3.28,0.68001 3.28,2.96 l 0,18.6 c 0,1.48 -0.52,2.28 -1.88,2.88 -0.87999,0.4 -2.2,0.6 -2.2,1.2 0,0.4 0.88,0.64 1.32,0.68 0.28,0 2.64001,-0.24 4.52,-0.24 1.92,0 4.56,0.24 4.84,0.24 0.44,-0.04 1.28,-0.28 1.28,-0.68 0,-0.6 -1.32,-0.8 -2.2,-1.2 -1.35999,-0.6 -1.88,-1.4 -1.88,-2.88 l 0,-18.6 c 0,-2.27999 1.04001,-2.32 3.32,-2.96 0.36,-0.12 0.6,-0.32 0.6,-0.68 0,-0.48 -0.8,-0.72 -1.4,-0.72"
         sodipodi:nodetypes="cssscsscscscscsscsc" />
    </g>
    <g
       id="g50557"
       style="fill:#dc322f;fill-opacity:1">
      <path
         inkscape:connector-curvature="0"
         id="path50473"
         style="font-size:40px;font-style:normal;font-variant:normal;font-weight:normal;font-stretch:normal;line-height:125%;letter-spacing:0px;word-spacing:0px;fill:#dc322f;fill-opacity:1;stroke:none;font-family:EB Garamond;-inkscape-font-specification:EB Garamond"
         d="m 493.87579,512.34313 c -1.35999,0 -3,0.2 -4.4,0.2 -1.43999,0 -2.88,-0.2 -4.44,-0.2 -0.6,0 -1.4,0.24 -1.4,0.72 0,0.36 0.28,0.56 0.64,0.68 2.28,0.64 3.28,0.68001 3.28,2.96 l 0,10.6 c 0,1.48 -0.52,2.28 -1.88,2.88 -0.87999,0.4 -2.2,0.6 -2.2,1.2 0,0.4 0.88,0.64 1.32,0.68 0.28,0 2.64001,-0.24 4.52,-0.24 1.92,0 4.56,0.24 4.84,0.24 0.44,-0.04 1.28,-0.28 1.28,-0.68 0,-0.6 -1.32,-0.8 -2.2,-1.2 -1.35999,-0.6 -1.88,-1.4 -1.88,-2.88 l 0,-10.6 c 0,-2.27999 1.04001,-2.32 3.32,-2.96 0.36,-0.12 0.6,-0.32 0.6,-0.68 0,-0.48 -0.8,-0.72 -1.4,-0.72"
         sodipodi:nodetypes="cssscsscscscscsscsc" />
      <path
         inkscape:connector-curvature="0"
         id="path50475"
         style="font-size:40px;font-style:normal;font-variant:normal;font-weight:normal;font-stretch:normal;line-height:125%;letter-spacing:0px;word-spacing:0px;fill:#dc322f;fill-opacity:1;stroke:none;font-family:EB Garamond;-inkscape-font-specification:EB Garamond"
         d="m 521.06329,494.34313 c -1.35999,0 -3,0.2 -4.4,0.2 -1.43999,0 -2.88,-0.2 -4.44,-0.2 -0.6,0 -1.4,0.24 -1.4,0.72 0,0.36 0.28,0.56 0.64,0.68 2.28,0.64 3.28,0.68001 3.28,2.96 l 0,28.6 c 0,1.48 -0.52,2.28 -1.88,2.88 -0.87999,0.4 -2.2,0.6 -2.2,1.2 0,0.4 0.88,0.64 1.32,0.68 0.28,0 2.64001,-0.24 4.52,-0.24 1.92,0 4.56,0.24 4.84,0.24 0.44,-0.04 1.28,-0.28 1.28,-0.68 0,-0.6 -1.32,-0.8 -2.2,-1.2 -1.35999,-0.6 -1.88,-1.4 -1.88,-2.88 l 0,-28.6 c 0,-2.27999 1.04001,-2.32 3.32,-2.96 0.36,-0.12 0.6,-0.32 0.6,-0.68 0,-0.48 -0.8,-0.72 -1.4,-0.72"
         sodipodi:nodetypes="cssscsscscscscsscsc" />
    </g>
    <g
       id="g50547"
       style="fill:#586e75;fill-opacity:1">
      <g
         id="g50477"
         transform="translate(176.13779,-25.906823)"
         style="fill:#586e75;fill-opacity:1">
        <path
           d="m 365.27924,553.48995 0,-7.24 c 0,-2.91999 -2.2,-5.56 -5,-5.56 -2.07999,0 -3.64,0.48 -4.96,1.56 -0.32,0.28 -0.8,0.84 -0.8,0.24 l 0,-1 c 0,-0.76 0,-1.12 -0.48,-1.12 -0.4,0 -3.68,1.32 -4.16,1.56 -0.52,0.24 -1.16,0.56 -1.16,1 0,0.44 0.4,0.68 0.84,0.84 0.96,0.36 1.64,1.36 1.64,2.04 l 0,7.76 c 0,1 -0.44,2.24 -1.52,2.56 -1.07999,0.32 -1.56,0.64 -1.56,1.04 0,0.4 0.16001,0.8 1.2,0.8 0.88,0 2.76001,-0.24 3.56,-0.24 0.64,0 2.04001,0.24 2.92,0.24 1.04,0 1.16,-0.4 1.16,-0.8 0,-0.4 -0.44,-0.72 -1.52,-1.04 -0.75999,-0.24 -0.92,-1.56 -0.92,-2.56 l 0.04,-6.4 c 0,-3.03999 1.60001,-4.4 3.92,-4.4 2.08,0 3.48,2.32001 3.48,4.68 l 0,6.12 c 0,1 -0.2,2.36 -0.92,2.56 -1.07999,0.32 -1.56,0.64 -1.56,1.04 0,0.4 0.16001,0.8 1.2,0.8 0.88,0 2.16001,-0.24 2.96,-0.24 0.64,0 2.64001,0.24 3.52,0.24 1.04,0 1.08,-0.4 1.08,-0.8 0,-0.4 -0.36,-0.72 -1.44,-1.04 -1.07999,-0.32 -1.52,-1.6 -1.52,-2.64"
           style="font-size:40px;font-style:normal;font-variant:normal;font-weight:normal;font-stretch:normal;line-height:125%;letter-spacing:0px;word-spacing:0px;fill:#586e75;fill-opacity:1;stroke:none;font-family:EB Garamond;-inkscape-font-specification:EB Garamond"
           id="path50479"
           inkscape:connector-curvature="0" />
        <path
           d="m 376.47799,558.20995 c 2.4,0 4.56,-1.96 4.56,-2.88 0,-0.4 -0.2,-0.56 -0.6,-0.56 -0.4,0 -1.4,0.72 -2.88,0.72 -1.39999,0 -2.08,-0.88 -2.08,-3.68 l 0,-7.48 c 0,-0.56 0.16,-0.76 0.64,-0.76 l 3.96,0 c 0.56,0 0.96,-1.04 0.96,-1.44 0,-0.4 -0.16,-0.92 -0.8,-0.92 l -3.88,0 c -0.52,0 -0.88,-0.2 -0.88,-0.6 l 0,-1.12 c 0,-0.68 -0.08,-1 -0.56,-1 -0.52,0 -2.04,1.52 -2.6,2 -0.99999,0.84 -2.68,1.96 -2.68,2.52 0,0.4 0.92,0.56 1.28,0.56 1.48,0 1.24,0.2 1.24,0.56 l 0,9.52 c 0,3.4 1.96001,4.56 4.32,4.56"
           style="font-size:40px;font-style:normal;font-variant:normal;font-weight:normal;font-stretch:normal;line-height:125%;letter-spacing:0px;word-spacing:0px;fill:#586e75;fill-opacity:1;stroke:none;font-family:EB Garamond;-inkscape-font-specification:EB Garamond"
           id="path50481"
           inkscape:connector-curvature="0" />
        <path
           d="m 386.96674,545.28995 c 0,-0.8 1.64001,-2.76 4.04,-2.76 1.16,0 2.36,0.8 2.36,1.96 0,0.56 -0.2,1.24 -0.6,1.24 l -5.28,0 c -0.48,0 -0.52,-0.16 -0.52,-0.44 m 9.88,-0.44 c 0,-2.03999 -2.56,-4.16 -5.28,-4.16 -4.87999,0 -8.64,3.76001 -8.64,8.68 0,4.52 2.48001,8.84 6.92,8.84 3.92,0 6.24,-1.92 6.24,-3.08 0,-0.4 -0.2,-0.56 -0.6,-0.56 -0.4,0 -2.16,0.92 -4.16,0.92 -3.15999,0 -5.04,-3.28 -5.04,-6.32 0,-0.68 0,-0.76 0.16,-1.2 0.12,-0.32 0.2,-0.4 0.76,-0.4 l 8.44,0 c 1.04,0 1.2,-1.64 1.2,-2.72"
           style="font-size:40px;font-style:normal;font-variant:normal;font-weight:normal;font-stretch:normal;line-height:125%;letter-spacing:0px;word-spacing:0px;fill:#586e75;fill-opacity:1;stroke:none;font-family:EB Garamond;-inkscape-font-specification:EB Garamond"
           id="path50483"
           inkscape:connector-curvature="0" />
        <path
           d="m 403.19174,557.72995 c 0.64,0 3.00001,0.24 3.88,0.24 1.04,0 1.36,-0.4 1.36,-0.8 0,-0.4 -0.56,-0.72 -1.64,-1.04 -1.07999,-0.32 -1.96,-1.56 -1.96,-2.56 l 0.08,-7.8 c 0,-1.04 1.16001,-1.88 2.08,-1.88 0.8,0 2,1.12 2.6,1.12 0.2,0 0.52,-0.24 0.64,-0.36 0.64,-0.64 1.2,-1.68 1.2,-2.28 0,-0.92 -0.64,-1.68 -2.28,-1.68 -1.19999,0 -2.88,0.88 -3.52,1.56 -0.2,0.24 -0.8,0.84 -0.8,0.24 l 0,-1 c 0,-0.76 0,-1.12 -0.48,-1.12 -0.4,0 -3.72,1.32 -4.16,1.56 -0.52,0.24 -1.16,0.56 -1.16,1 0,0.44 0.4,0.68 0.84,0.84 0.96,0.36 1.64,1.36 1.64,2.04 l 0,7.76 c 0,1 -0.44,2.24 -1.52,2.56 -1.07999,0.32 -1.56,0.64 -1.56,1.04 0,0.4 0.16001,0.8 1.2,0.8 0.88,0 2.80001,-0.24 3.56,-0.24"
           style="font-size:40px;font-style:normal;font-variant:normal;font-weight:normal;font-stretch:normal;line-height:125%;letter-spacing:0px;word-spacing:0px;fill:#586e75;fill-opacity:1;stroke:none;font-family:EB Garamond;-inkscape-font-specification:EB Garamond"
           id="path50485"
           inkscape:connector-curvature="0" />
        <path
           d="m 424.01237,542.68995 c 0.24,0.04 0.68,0.32 0.68,0.72 0,0.28 -0.08,0.84 -0.4,1.64 l -2.88,7.28 c -0.12,0.32 -0.28,0.4 -0.4,0 l -3.28,-8.6 c -0.16,-0.4 0,-0.92 0.2,-0.96 0.88,-0.28 1.36,-0.6 1.36,-1 0,-0.4 -0.36,-0.8 -1,-0.8 -0.6,0 -2.28,0.24 -2.88,0.24 -0.6,0 -1.96,-0.24 -2.56,-0.24 -0.64,0 -0.96,0.4 -0.96,0.8 0,0.4 0.72,0.72 1.32,0.92 0.6,0.2 1.16,1.48 1.56,2.52 l 4.44,11.64 c 0.24,0.68 0.6,1.6 1,1.6 0.72,0 1.84,-3.8 2.52,-5.48 l 3.16,-8 c 0.56,-1.4 1.28,-2.12 1.72,-2.28 0.6,-0.2 1.36,-0.52 1.36,-0.92 0,-0.4 -0.32,-0.8 -0.96,-0.8 -0.6,0 -1.32,0.24 -1.92,0.24 -0.6,0 -1.6,-0.24 -2.2,-0.24 -0.64,0 -1,0.4 -1,0.8 0,0.4 0.52,0.8 1.12,0.92"
           style="font-size:40px;font-style:normal;font-variant:normal;font-weight:normal;font-stretch:normal;line-height:125%;letter-spacing:0px;word-spacing:0px;fill:#586e75;fill-opacity:1;stroke:none;font-family:EB Garamond;-inkscape-font-specification:EB Garamond"
           id="path50487"
           inkscape:connector-curvature="0" />
        <path
           d="m 433.00924,552.64995 c 0,-0.68 0.60001,-1.48 2,-1.92 l 1.92,-0.76 c 0.44,-0.16 0.92,-0.16 0.92,0.28 l 0,3.76 c 0,0.96 -1.36,1.52 -2.48,1.52 -1.43999,0 -2.36,-0.92 -2.36,-2.88 m 2.96,-11.96 c -1.47999,0 -3,0.92 -4.4,1.88 -0.83999,0.6 -1.52,1.8 -1.52,2.72 0,0.32 0.08,1.36 0.32,1.36 0.4,0 2,-0.68 2.24,-0.84 0.36,-0.24 0.4,-0.56 0.4,-1.56 0,-0.84 1.00001,-1.16 1.84,-1.16 1.4,0 2.92,1.04 2.92,2.44 l 0,1.96 c 0,0.4 -0.2,0.6 -0.92,0.92 l -5.24,2.2 c -1.19999,0.52 -2.16,1.76001 -2.16,3.76 0,2 2.00001,3.84 3.96,3.84 1.56,0 3.16001,-0.8 4.08,-1.72 0.28,-0.28 0.32,-0.32 0.6,0.08 0.52,0.72 1.44001,1.64 2.76,1.64 1.6,0 3.6,-1.04 3.6,-2.48 0,-0.44 -0.12,-0.88 -0.36,-0.88 -0.28,0 -0.88,0.52 -1.44,0.52 -0.67999,0 -1.44,-0.48 -1.44,-1.12 l 0,-9.48 c 0,-2.11999 -1.84,-4.08 -5.24,-4.08"
           style="font-size:40px;font-style:normal;font-variant:normal;font-weight:normal;font-stretch:normal;line-height:125%;letter-spacing:0px;word-spacing:0px;fill:#586e75;fill-opacity:1;stroke:none;font-family:EB Garamond;-inkscape-font-specification:EB Garamond"
           id="path50489"
           inkscape:connector-curvature="0" />
        <path
           d="m 448.77737,535.20995 0,18.36 c 0,1 -0.44,2.24 -1.52,2.56 -1.08,0.32 -1.76,0.64 -1.76,1.04 0,0.4 0.36,0.8 1.4,0.8 0.88,0 2.76,-0.24 3.56,-0.24 0.64,0 2.64,0.24 3.52,0.24 1.04,0 1.36,-0.4 1.36,-0.8 0,-0.4 -0.64,-0.72 -1.72,-1.04 -1.08,-0.32 -1.52,-1.56 -1.52,-2.56 l 0,-21.84 c 0,-0.76 0,-1.08 -0.48,-1.08 -0.4,0 -2.56,0.68 -4.16,0.96 -0.56,0.08 -1.16,0.4 -1.16,0.84 0,0.44 0.48,0.76 0.92,0.92 0.96,0.36 1.56,1.16 1.56,1.84"
           style="font-size:40px;font-style:normal;font-variant:normal;font-weight:normal;font-stretch:normal;line-height:125%;letter-spacing:0px;word-spacing:0px;fill:#586e75;fill-opacity:1;stroke:none;font-family:EB Garamond;-inkscape-font-specification:EB Garamond"
           id="path50491"
           inkscape:connector-curvature="0" />
      </g>
    </g>
  </g>
</svg>
