<?xml version="1.0" encoding="UTF-8" standalone="no"?>
<!-- Created with Inkscape (http://www.inkscape.org/) -->

<svg
   xmlns:dc="http://purl.org/dc/elements/1.1/"
   xmlns:cc="http://creativecommons.org/ns#"
   xmlns:rdf="http://www.w3.org/1999/02/22-rdf-syntax-ns#"
   xmlns:svg="http://www.w3.org/2000/svg"
   xmlns="http://www.w3.org/2000/svg"
   xmlns:inkscape="http://www.inkscape.org/namespaces/inkscape"
   version="1.1"
   width="96.25"
   height="62.5"
   id="svg2"
   xml:space="preserve"><metadata
     id="metadata8"><rdf:RDF><cc:Work
         rdf:about=""><dc:format>image/svg+xml</dc:format><dc:type
           rdf:resource="http://purl.org/dc/dcmitype/StillImage" /></cc:Work></rdf:RDF></metadata><defs
     id="defs6" /><g
     transform="matrix(1.25,0,0,-1.25,0,62.5)"
     id="g10"><g
       transform="scale(0.1,0.1)"
       id="g12"><path
         d="m 2.48828,202.281 756.64072,0"
         inkscape:connector-curvature="0"
         id="path14"
         style="fill:none;stroke:#000000;stroke-width:4.9813199;stroke-linecap:round;stroke-linejoin:miter;stroke-miterlimit:10;stroke-opacity:1;stroke-dasharray:none" /><path
         d="m 2.48828,252.09 756.64072,0"
         inkscape:connector-curvature="0"
         id="path16"
         style="fill:none;stroke:#000000;stroke-width:4.9813199;stroke-linecap:round;stroke-linejoin:miter;stroke-miterlimit:10;stroke-opacity:1;stroke-dasharray:none" /><path
         d="m 2.48828,301.91 756.64072,0"
         inkscape:connector-curvature="0"
         id="path18"
         style="fill:none;stroke:#000000;stroke-width:4.9813199;stroke-linecap:round;stroke-linejoin:miter;stroke-miterlimit:10;stroke-opacity:1;stroke-dasharray:none" /><path
         d="m 2.48828,351.719 756.64072,0"
         inkscape:connector-curvature="0"
         id="path20"
         style="fill:none;stroke:#000000;stroke-width:4.9813199;stroke-linecap:round;stroke-linejoin:miter;stroke-miterlimit:10;stroke-opacity:1;stroke-dasharray:none" /><path
         d="m 2.48828,401.531 756.64072,0"
         inkscape:connector-curvature="0"
         id="path22"
         style="fill:none;stroke:#000000;stroke-width:4.9813199;stroke-linecap:round;stroke-linejoin:miter;stroke-miterlimit:10;stroke-opacity:1;stroke-dasharray:none" /><path
         d="m 756.891,202.281 0,199.25"
         inkscape:connector-curvature="0"
         id="path24"
         style="fill:none;stroke:#000000;stroke-width:9.46450996;stroke-linecap:butt;stroke-linejoin:miter;stroke-miterlimit:10;stroke-opacity:1;stroke-dasharray:none" /><path
         d="m 475.719,374.25 c 15.301,0 26.633,-11.719 26.633,-27.02 0,-8.941 -3.782,-17.48 -13.723,-17.48 -15.301,0 -26.617,11.719 -26.617,27.02 0,8.941 3.777,17.48 13.718,17.48 l -0.011,0 z M 531.34,352 c 0,8.551 -6.949,15.09 -14.5,19.27 -10.531,5.968 -22.449,8.16 -34.578,8.16 -12.114,0 -24.231,-2.192 -34.774,-8.16 -7.547,-4.168 -14.5,-10.719 -14.5,-19.27 0,-8.551 6.953,-15.09 14.5,-19.27 10.532,-5.968 22.66,-8.16 34.774,-8.16 12.129,0 24.047,2.192 34.578,8.16 7.551,4.168 14.5,10.719 14.5,19.27"
         inkscape:connector-curvature="0"
         id="path26"
         style="fill:#000000;fill-opacity:1;fill-rule:nonzero;stroke:none" /><path
         d="m 475.719,199.25 c 15.301,0 26.633,-11.719 26.633,-27.02 0,-8.941 -3.782,-17.48 -13.723,-17.48 -15.301,0 -26.617,11.719 -26.617,27.02 0,8.941 3.777,17.48 13.718,17.48 l -0.011,0 z M 531.34,177 c 0,8.551 -6.949,15.09 -14.5,19.27 -10.531,5.968 -22.449,8.16 -34.578,8.16 -12.114,0 -24.231,-2.192 -34.774,-8.16 -7.547,-4.168 -14.5,-10.719 -14.5,-19.27 0,-8.551 6.953,-15.09 14.5,-19.27 10.532,-5.968 22.66,-8.16 34.774,-8.16 12.129,0 24.047,2.192 34.578,8.16 7.551,4.168 14.5,10.719 14.5,19.27"
         inkscape:connector-curvature="0"
         id="path28"
         style="fill:#000000;fill-opacity:1;fill-rule:nonzero;stroke:none" /><path
         d="m 114.699,304.051 c -3.371,13.719 -6.949,27.629 -11.121,41.129 18.672,21.66 35.774,43.91 35.774,72.332 0,22.449 -12.332,54.437 -26.442,71.129 -0.59,0.589 -1.191,0.589 -1.98,0.589 -0.59,0 -1.391,-0.199 -1.981,-0.589 -18.6678,-13.52 -29.5896,-35.172 -29.5896,-58.02 0,-10.332 0.1914,-20.66 1.3906,-31 1.5781,-12.91 5.1602,-25.422 8.9414,-37.75 -23.25,-26.812 -49.2812,-52.441 -49.2812,-87.609 0,-40.121 28.8086,-74.301 66.1678,-74.301 6.16,0 11.91,0.59 17.672,1.578 0.59,-6.16 0.801,-12.109 0.801,-18.269 0,-3.579 -0.199,-7.36 -0.391,-10.942 -1.199,-19.668 -13.308,-37.937 -32.3905,-37.937 -9.7304,0 -18.0781,5.16 -23.25,12.91 2,-0.801 3.9805,-1.192 6.1719,-1.192 10.3281,0 18.8789,8.551 18.8789,18.879 0,11.133 -8.1601,20.453 -18.8711,20.453 -11.7304,0 -22.2695,-8.941 -22.2695,-20.453 0,-21.66 17.3008,-39.136 38.75,-39.136 23.4413,0 39.9413,21.449 41.3323,45.296 0.187,3.782 0.386,7.75 0.386,11.524 0,6.949 -0.386,13.906 -0.976,20.879 5.156,1.578 10.129,3.769 14.5,7.14 14.699,11.129 21.25,26.629 21.25,41.719 0,26.442 -20.063,51.86 -50.863,51.86 -0.797,0 -1.778,-0.2 -2.579,-0.2 l -0.031,-0.019 z m 16.891,-92.379 c -2.781,24.437 -7.16,47.277 -11.918,70.328 21.25,-2.191 34.359,-19.871 34.359,-37.75 0,-13.699 -8.941,-27.809 -22.441,-32.578 z m -76.8908,45.887 c 0,31.781 21.0625,56.031 42.3125,80.062 3.3793,-11.519 6.3593,-23.23 9.1363,-34.769 -20.2691,-4.563 -31.7769,-21.661 -31.7769,-39.141 0,-13.91 7.3398,-28.199 23.2305,-36.75 0.6093,-0.199 1.1992,-0.41 1.7968,-0.41 2.3826,0 4.3826,2.187 4.3826,4.379 0,1 -0.41,1.98 -1.39,2.98 -11.1215,6.36 -16.0902,15.692 -16.0902,24.442 0,11.519 8.9375,22.046 24.6292,23.636 5.172,-23.636 9.73,-47.09 12.519,-72.308 -5.359,-0.801 -10.719,-1.2 -16.277,-1.2 -26.8322,0 -52.4532,22.25 -52.4532,49.079 l -0.0196,0 z m 66.3598,202.05 c 3.171,-9.918 3.972,-14.699 3.972,-25.621 0,-25.027 -13.109,-45.09 -28.9998,-64.367 -3.582,12.129 -7.1601,23.84 -7.1601,38.551 0,21.859 12.5199,41.918 32.1879,51.449"
         inkscape:connector-curvature="0"
         id="path30"
         style="fill:#000000;fill-opacity:1;fill-rule:nonzero;stroke:none" /><path
         d="m 320.328,307.359 c 7.344,0 13.313,6.36 13.313,14.313 0,0.797 0,1.59 -0.2,2.578 -2.98,17.09 -17.48,29.801 -34.769,29.801 -13.524,0 -27.223,-3.973 -36.563,-13.699 C 252.379,330.23 249,316.121 249,302.012 c 0,-14.114 3.379,-28.223 13.109,-38.34 9.34,-9.731 23.051,-13.91 36.563,-13.91 15.5,0 36.359,15.886 36.359,34.558 0,1.59 -1.39,2.391 -2.59,2.391 -0.98,0 -1.98,-0.59 -2.371,-1.981 -3.781,-16.089 -15.5,-30 -31.39,-30 -21.059,0 -22.45,14.7 -22.45,37.161 l 0,20.25 c 0,22.449 1.391,36.949 22.45,36.949 9.531,0 18.281,-4.36 23.84,-11.719 -1,0.199 -2,0.199 -2.782,0.199 -8.949,0 -14.308,-7.75 -14.308,-15.3 0,-6.559 5.172,-14.911 14.91,-14.911"
         inkscape:connector-curvature="0"
         id="path32"
         style="fill:#000000;fill-opacity:1;fill-rule:nonzero;stroke:none" /><path
         d="m 223.078,19.1992 0,92.5508 17.231,0 0,4.52 -28.25,0 0,-101.4692 28.25,0 0,4.4101 -17.231,0"
         inkscape:connector-curvature="0"
         id="path34"
         style="fill:#000000;fill-opacity:1;fill-rule:nonzero;stroke:none" /><path
         d="m 306.73,54.4102 -5.371,0 -1.218,-6.2305 c -1.59,-7.8281 -2.563,-8.668 -10.161,-8.668 l -27.371,0 c 8.442,8.7969 11.25,11.3594 19.063,17.4688 11.129,8.5586 15.906,12.8398 18.719,16.5195 3.91,5.3789 5.859,10.8789 5.859,16.75 0,13.809 -11.609,23.84 -27.5,23.84 -15.531,0 -27.52,-10.031 -27.52,-22.9806 0,-7.6992 3.911,-12.9688 9.782,-12.9688 4.527,0 7.578,3.0586 7.578,7.4492 0,3.0586 -1.699,5.879 -4.41,6.9688 -4.52,1.9726 -4.77,2.082 -4.77,3.6719 0,1.8398 1.231,4.6605 2.942,6.7305 3.058,3.66 8.187,5.859 13.937,5.859 10.031,0 16.141,-6.23 16.141,-16.4997 0,-9.0508 -4.282,-17.2305 -14.418,-28 l -7.223,-7.582 -9.527,-10.2695 c -4.41,-5.1407 -6.614,-7.9493 -11.981,-15.0469 l 0,-3.4219 55.141,0 2.308,26.4102"
         inkscape:connector-curvature="0"
         id="path36"
         style="fill:#000000;fill-opacity:1;fill-rule:nonzero;stroke:none" /><path
         d="m 362.391,70.4219 c -1.59,-14.8008 -2.2,-18.4531 -4.411,-24.6914 -3.171,-9.0508 -9.89,-14.3086 -18.089,-14.3086 -4.032,0 -6.84,1.2187 -6.84,3.0586 0,0.4804 0.25,1.0898 0.73,2.0781 1.469,2.9414 1.719,3.6602 1.719,5.3828 0,4.0274 -3.191,7.2188 -7.219,7.2188 -4.64,0 -8.312,-3.9219 -8.312,-8.8086 0,-8.0625 8.562,-14.1719 19.812,-14.1719 11.129,0 20.66,5 26.641,14.0508 6,9.0507 9.297,20.9101 9.297,33.5 0,24.5781 -11.731,40.3595 -29.949,40.3595 -15.661,0 -28,-12.969 -28,-29.4689 0,-14.5508 10.269,-25.3125 24.199,-25.3125 8.691,0 13.832,2.8125 20.422,11.1328 l 0,-0.0195 z M 346.25,108.809 c 9.051,0 15.051,-9.0473 15.051,-22.7309 0,-5.0195 -0.981,-9.5469 -2.813,-12.3593 -2.808,-4.3907 -7.578,-7.0782 -12.84,-7.0782 -9.277,0 -14.546,7.1992 -14.546,20.168 0,5.8633 1.339,11.6133 3.668,15.2814 2.808,4.769 6.109,6.719 11.48,6.719"
         inkscape:connector-curvature="0"
         id="path38"
         style="fill:#000000;fill-opacity:1;fill-rule:nonzero;stroke:none" /><path
         d="m 423.301,72.9805 c 1.719,0.6289 1.969,0.6289 2.808,0.9804 8.563,3.5508 13.45,10.3907 13.45,19.0782 0,12.7229 -9.778,21.0309 -24.938,21.0309 -14.312,0 -25.191,-8.441 -25.191,-19.5583 0,-5.0234 3.422,-8.5625 8.058,-8.5625 4.282,0 7.223,2.9414 7.223,7.332 0,2.5782 -0.981,4.2774 -3.801,6.2305 -1.219,0.8593 -1.582,1.4683 -1.582,2.1993 0,3.418 7.203,7.09 14.063,7.09 8.8,0 13.437,-5.5 13.437,-15.8908 0,-11.3711 -4.637,-17.3594 -13.437,-17.3594 -1.11,0 -3.063,0.1289 -4.891,0.2304 -0.98,0.129 -1.969,0.129 -2.699,0.129 -2.563,0 -3.91,-1.0899 -3.91,-3.3008 0,-2.0782 1.339,-3.0586 3.8,-3.0586 0.36,0 1.34,0 2.918,0.1289 4.661,0.1289 4.782,0.1289 5.75,0.1289 9.051,0 13.942,-6.4805 13.942,-18.5781 0,-12.5899 -6.231,-19.8086 -17.11,-19.8086 -7.703,0 -16.019,4.1562 -16.019,7.9492 0,1.0898 0.226,1.3398 2.687,2.6875 3.422,2.082 4.77,4.1602 4.77,7.2031 0,4.4102 -3.301,7.6992 -7.828,7.6992 -5.121,0 -8.672,-4.3906 -8.672,-10.75 0,-11.8593 10.883,-20.0507 26.531,-20.0507 17.59,0 29.219,9.7812 29.219,24.8086 0,11.5 -6,18.4726 -18.59,22"
         inkscape:connector-curvature="0"
         id="path40"
         style="fill:#000000;fill-opacity:1;fill-rule:nonzero;stroke:none" /><path
         d="m 459.641,5.62891 c 10.879,7.44919 16.019,14.92189 16.019,23.47269 0,7.3398 -4.031,12.1093 -10.031,12.1093 -4.52,0 -7.938,-3.1718 -7.938,-7.332 0,-4.4101 3.297,-7.2187 8.309,-7.2187 0.48,0 1.699,0 1.949,0.1289 l 0.36,0 c 0.613,0 0.863,-0.3672 0.863,-1.1094 0,-5.1211 -4.16,-10.8711 -12.344,-16.62111 l 2.813,-3.41797"
         inkscape:connector-curvature="0"
         id="path42"
         style="fill:#000000;fill-opacity:1;fill-rule:nonzero;stroke:none" /><path
         d="m 537.051,100.25 c 6.609,-1.5781 10.027,-2.0781 14.801,-2.0781 10.386,0 17.968,3.6681 22,10.3871 1.359,2.332 1.839,3.441 1.839,4.41 0,0.73 -0.371,1.109 -0.98,1.109 -0.359,0 -0.973,-0.117 -1.582,-0.5 -6,-2.558 -9.301,-3.168 -16.27,-3.168 -7.828,0 -12.339,0.61 -25.187,3.668 -0.481,-10.277 -1.594,-23.3592 -3.301,-38.5194 -2.582,-2.6875 -3.422,-4.2774 -3.422,-6.2305 0,-2.4492 1.582,-4.1562 3.91,-4.1562 3.063,0 5.02,2.5586 5.5,7.4492 4.282,3.0586 8.313,4.4101 13.2,4.4101 10.89,0 17.48,-8.4414 17.48,-22.371 0,-8.1914 -2.078,-15.1602 -5.75,-18.9493 -2.437,-2.5625 -7.449,-4.2812 -12.469,-4.2812 -7.332,0 -14.91,3.8008 -14.91,7.582 0,0.8594 0.731,1.8399 2.192,2.6875 3.796,2.332 4.886,3.9219 4.886,7.2227 0,4.2773 -3.297,7.5781 -7.699,7.5781 -4.867,0 -8.801,-4.5195 -8.801,-10.2695 0,-6.1094 3.551,-12.2305 9.051,-16.0196 4.16,-2.6914 9.172,-4.0312 15.531,-4.0312 19.192,0 31.301,11.25 31.301,29.2187 0,16.6328 -11.121,27.75 -27.621,27.75 -5.141,0 -9.051,-0.8593 -15.781,-3.6679 l 2.082,20.7815"
         inkscape:connector-curvature="0"
         id="path44"
         style="fill:#000000;fill-opacity:1;fill-rule:nonzero;stroke:none" /><path
         d="m 630.719,75.6914 c 9.172,5 13.453,11 13.453,18.9375 0,11.2501 -10.274,19.4491 -24.332,19.4491 -14.918,0 -25.801,-9.906 -25.801,-23.3592 0,-5.25 1.949,-10.75 5.383,-14.5469 2.078,-2.4531 4.047,-3.8008 8.437,-6.1133 -5.371,-2.0781 -7.699,-3.3086 -10.39,-5.5 -4.77,-3.918 -7.449,-9.7774 -7.449,-16.0195 0,-6.6094 3.3,-13.2188 8.441,-17.1172 4.769,-3.4219 11.359,-5.25 19.187,-5.25 9.051,0 16.633,2.4375 21.641,6.9687 5.27,4.5196 8.441,11.9688 8.441,19.4375 0,6.9727 -2.691,13.2031 -7.699,17.6133 -2.441,2.0781 -4.64,3.418 -9.301,5.5 l -0.011,0 z m -13.078,4.7578 c -9.911,3.6719 -14.172,8.3125 -14.172,15.4102 0,7.6996 6.34,12.9496 16.019,12.9496 9.41,0 15.641,-5.981 15.641,-14.9106 0,-6.3593 -2.438,-10.5195 -9.41,-16.3867 l -8.078,2.9375 z m 7.089,-16.8711 c 9.301,-3.2969 13.2,-8.0586 13.2,-16.1367 0,-9.7812 -7.7,-16.0195 -19.692,-16.0195 -11.359,0 -18.09,6.3593 -18.09,17.1289 0,9.1601 3.801,14.668 13.332,19.0586 l 11.25,-4.0313"
         inkscape:connector-curvature="0"
         id="path46"
         style="fill:#000000;fill-opacity:1;fill-rule:nonzero;stroke:none" /><path
         d="m 698.719,75.6914 c 9.172,5 13.453,11 13.453,18.9375 0,11.2501 -10.274,19.4491 -24.332,19.4491 -14.918,0 -25.801,-9.906 -25.801,-23.3592 0,-5.25 1.949,-10.75 5.383,-14.5469 2.078,-2.4531 4.047,-3.8008 8.437,-6.1133 -5.371,-2.0781 -7.699,-3.3086 -10.39,-5.5 -4.77,-3.918 -7.449,-9.7774 -7.449,-16.0195 0,-6.6094 3.3,-13.2188 8.441,-17.1172 4.769,-3.4219 11.359,-5.25 19.187,-5.25 9.051,0 16.633,2.4375 21.641,6.9687 5.27,4.5196 8.441,11.9688 8.441,19.4375 0,6.9727 -2.691,13.2031 -7.699,17.6133 -2.441,2.0781 -4.64,3.418 -9.301,5.5 l -0.011,0 z m -13.078,4.7578 c -9.911,3.6719 -14.172,8.3125 -14.172,15.4102 0,7.6996 6.34,12.9496 16.019,12.9496 9.41,0 15.641,-5.981 15.641,-14.9106 0,-6.3593 -2.438,-10.5195 -9.41,-16.3867 l -8.078,2.9375 z m 7.089,-16.8711 c 9.301,-3.2969 13.2,-8.0586 13.2,-16.1367 0,-9.7812 -7.7,-16.0195 -19.692,-16.0195 -11.359,0 -18.09,6.3593 -18.09,17.1289 0,9.1601 3.801,14.668 13.332,19.0586 l 11.25,-4.0313"
         inkscape:connector-curvature="0"
         id="path48"
         style="fill:#000000;fill-opacity:1;fill-rule:nonzero;stroke:none" /><path
         d="m 742.52,111.879 0,-92.5587 -17.11,0 0,-4.5195 28.11,0 0,101.4692 -28.11,0 0,-4.391 17.11,0"
         inkscape:connector-curvature="0"
         id="path50"
         style="fill:#000000;fill-opacity:1;fill-rule:nonzero;stroke:none" /></g></g></svg>